<svg xmlns="http://www.w3.org/2000/svg" viewBox="0 0 935.08 394.74"><defs><style>.cls-1{isolation:isolate;}.cls-2{mix-blend-mode:lighten;}.cls-3{fill:#fff;}</style></defs><title>Logo-renv</title><g class="cls-1"><g id="Calque_2" data-name="Calque 2"><g id="Layer_1" data-name="Layer 1"><g class="cls-2"><path class="cls-3" d="M134.75,166.06a50.46,50.46,0,0,1-10.17,13.52,53.82,53.82,0,0,1-15.39,10.17,48.3,48.3,0,0,1-19.93,4,59.65,59.65,0,0,1-24.89-5.08,54.2,54.2,0,0,1-19.14-14.33,65.86,65.86,0,0,1-12.18-21.67,80.53,80.53,0,0,1-4.28-26.36A67.27,67.27,0,0,1,44.16,84,57.74,57.74,0,0,1,62.09,69.71a50.13,50.13,0,0,1,23.42-5.48,70.09,70.09,0,0,1,19.67,2.68,45.6,45.6,0,0,1,16,8.16,42.15,42.15,0,0,1,11.11,13.78,50,50,0,0,1,5.08,19.54H51.52c0,1.43-.1,3.07-.27,5s-.27,3.79-.27,5.75a72,72,0,0,0,3.21,21.55,56.92,56.92,0,0,0,9.37,18.19,43.42,43.42,0,0,0,15.52,12.45,48.94,48.94,0,0,0,21.68,4.55A40.57,40.57,0,0,0,124.18,169c6.68-4.55,11.11-10.12,13.24-16.72l2.15.54A49.41,49.41,0,0,1,134.75,166.06ZM104.11,75.87q-6.83-7.09-18.34-7.09a22.31,22.31,0,0,0-13.51,4.41A50.28,50.28,0,0,0,61.82,83.5,52,52,0,0,0,55,95.41a49.08,49.08,0,0,0-3,9.23H63c3.2,0,6.38,0,9.49-.13l9.78-.27c3.38-.09,7.13-.13,11.23-.13,2.69,0,5.18-.09,7.5-.27a20.76,20.76,0,0,0,6.16-1.34,20.13,20.13,0,0,0,2.81-4,13.18,13.18,0,0,0,.93-5.63A23.63,23.63,0,0,0,104.11,75.87Z"/><path class="cls-3" d="M286.23,193.5v-2.95a51.27,51.27,0,0,0,11-1.73q3.75-1.22,3.75-5.5V115.08q0-15.52-5.52-24.76t-19.5-9.23q-8.88,0-14.8,4.68a101.35,101.35,0,0,0-12.37,11.91v86.44a4.39,4.39,0,0,0,1.34,3.22,8.27,8.27,0,0,0,3.48,2,32.64,32.64,0,0,0,4.68,1.06c1.7.27,3.35.51,4.95.68v2.41H210.76v-2.95a62.38,62.38,0,0,0,11.51-1.73q4.28-1.22,4.28-5.5V114.81q0-15.78-5.49-24.76t-19.4-9q-8.85,0-14.46,3.74a75.4,75.4,0,0,0-12.58,11.25v87.78a6.94,6.94,0,0,0,1.88,3.88,8.07,8.07,0,0,0,3.34,1.74,21.8,21.8,0,0,0,4.43.67,36,36,0,0,1,5.08.67v2.68H137.42c4.11-.36,7.63-3.84,10.58-5.09s4.42-3.3,4.42-6.16V90.72a9.53,9.53,0,0,0-.41-3.2,6,6,0,0,0-2.27-2.41c-1.61-.9-3.48-1.92-5.62-3.08s-4.29-2.18-6.43-3.08V76.81l35.06-12.58h1.61v28.9l.54.27a68.59,68.59,0,0,1,6.92-10A54.62,54.62,0,0,1,191.7,74a59.91,59.91,0,0,1,12.12-7,34.5,34.5,0,0,1,13.74-2.81q12.8,0,20.66,8.43T248,95.27h.8A62.26,62.26,0,0,1,255.45,85a66.84,66.84,0,0,1,9.9-10.17,51.08,51.08,0,0,1,12.45-7.63,35.17,35.17,0,0,1,14.05-2.94q15.52,0,23.41,11.24t7.91,28.9v79.75a4,4,0,0,0,1.6,3.22,10.6,10.6,0,0,0,3.88,2,36.4,36.4,0,0,0,5,1.06c1.78.27,3.47.51,5.08.68v2.41Z"/><path class="cls-3" d="M336.54,193.5v-2.68c2.14-.18,4.28-.41,6.42-.67a26.37,26.37,0,0,0,5.76-1.33,12.85,12.85,0,0,0,4.28-2.55,5.24,5.24,0,0,0,1.74-4V90.46a15.45,15.45,0,0,0-.4-3.75,5.39,5.39,0,0,0-2.28-2.95,48.31,48.31,0,0,0-5.75-3.21c-2.24-1.07-4.6-2-7.09-2.94V76l36.13-11.77H377V183.86a5.85,5.85,0,0,0,2.28,3.88,11.68,11.68,0,0,0,4.14,1.74,30.7,30.7,0,0,0,5.23.67,36.63,36.63,0,0,1,5.48.67v2.68ZM375,32.25a14,14,0,0,1-10.31,4.15,13.87,13.87,0,0,1-10.17-4.29,13.86,13.86,0,0,1-4.28-10.17,13.55,13.55,0,0,1,4.15-10.17,15.25,15.25,0,0,1,20.61,0,13.58,13.58,0,0,1,4.15,10.17A14,14,0,0,1,375,32.25Z"/><path class="cls-3" d="M391.14,193.5v-2.95q12.3-.81,16.32-2.54a6.11,6.11,0,0,0,4-6V28.1a9.6,9.6,0,0,0-.4-3.21,6.19,6.19,0,0,0-2.27-2.41q-2.42-1.34-7.23-4.15a73.5,73.5,0,0,0-8-4.15v-1.6L431.82,0h1.87V183.32a5.85,5.85,0,0,0,1.2,4,6.76,6.76,0,0,0,3.61,1.87,34.79,34.79,0,0,0,6.16.67q3.75.13,8.83.67l-8.42.34Z"/><path class="cls-3" d="M457.2,193.5l-7.72-2.68c2.14-.18,4.27-.41,6.42-.67a26.41,26.41,0,0,0,5.75-1.33,12.85,12.85,0,0,0,4.28-2.55,5.24,5.24,0,0,0,1.74-4V90.46a15.45,15.45,0,0,0-.4-3.75A5.37,5.37,0,0,0,465,83.76a48.51,48.51,0,0,0-5.76-3.21,75.42,75.42,0,0,0-7.09-2.94V76l36.13-11.77h1.61V183.86a5.84,5.84,0,0,0,2.27,3.88,11.76,11.76,0,0,0,4.14,1.74,31,31,0,0,0,5.23.67,36.47,36.47,0,0,1,5.48.67v2.68ZM487.88,32.25a14.53,14.53,0,0,1-20.48-.14,13.89,13.89,0,0,1-4.28-10.17,13.55,13.55,0,0,1,4.15-10.17,15.25,15.25,0,0,1,20.61,0A13.58,13.58,0,0,1,492,21.94,14,14,0,0,1,487.88,32.25Z"/><path class="cls-3" d="M613.26,166.06a50.25,50.25,0,0,1-10.17,13.52,53.82,53.82,0,0,1-15.39,10.17,48.3,48.3,0,0,1-19.93,4,59.68,59.68,0,0,1-24.89-5.08,54.29,54.29,0,0,1-19.14-14.33,66,66,0,0,1-12.18-21.67,80.53,80.53,0,0,1-4.28-26.36A67.42,67.42,0,0,1,522.67,84,57.74,57.74,0,0,1,540.6,69.71,50.18,50.18,0,0,1,564,64.23a70.09,70.09,0,0,1,19.67,2.68,45.65,45.65,0,0,1,16.06,8.16,42.54,42.54,0,0,1,11.11,13.78,50.19,50.19,0,0,1,5.08,19.54H530c0,1.43-.1,3.07-.27,5s-.27,3.79-.27,5.75a72,72,0,0,0,3.22,21.55,56.53,56.53,0,0,0,9.37,18.19,43.24,43.24,0,0,0,15.52,12.45,48.94,48.94,0,0,0,21.68,4.55A40.56,40.56,0,0,0,602.69,169q10-6.83,13.25-16.72l2.15.54A49.47,49.47,0,0,1,613.26,166.06ZM582.62,75.87q-6.82-7.09-18.34-7.09a22.31,22.31,0,0,0-13.51,4.41A50,50,0,0,0,540.34,83.5a52,52,0,0,0-6.83,11.91,48.89,48.89,0,0,0-2.94,9.23h11q4.82,0,9.5-.13l9.77-.27c3.39-.09,7.13-.13,11.24-.13,2.68,0,5.17-.09,7.49-.27a20.62,20.62,0,0,0,6.15-1.34,20.22,20.22,0,0,0,2.82-4,13.18,13.18,0,0,0,.93-5.63A23.63,23.63,0,0,0,582.62,75.87Z"/></g><g class="cls-2"><path class="cls-3" d="M148.8,317.94V315a49.7,49.7,0,0,0,11-1.75c2.51-.8,3.75-2.63,3.75-5.48V239.52q0-15.51-5.51-24.75t-19.5-9.24q-8.88,0-14.8,4.69a99.76,99.76,0,0,0-12.37,11.9v86.45a4.37,4.37,0,0,0,1.33,3.21,8.44,8.44,0,0,0,3.48,2,32.92,32.92,0,0,0,4.68,1.07c1.7.27,3.35.49,5,.67v2.41H73.33V315a60.35,60.35,0,0,0,11.51-1.75c2.86-.8,4.28-2.63,4.28-5.48V239.25q0-15.78-5.48-24.76t-19.41-9q-8.84,0-14.45,3.75A74.5,74.5,0,0,0,37.2,220.52V308.3a6.87,6.87,0,0,0,1.88,3.88,7.78,7.78,0,0,0,3.34,1.74,21.7,21.7,0,0,0,4.42.67,37.29,37.29,0,0,1,5.08.66v2.69H0v-2.69a34.66,34.66,0,0,0,10.58-2.4Q15,311,15,306.69V215.17a9.87,9.87,0,0,0-.4-3.21,6.23,6.23,0,0,0-2.28-2.42c-1.6-.89-3.48-1.91-5.62-3.07s-4.28-2.18-6.42-3.08v-2.14l35.06-12.58h1.6v28.9l.55.27a67.24,67.24,0,0,1,6.92-10,53.94,53.94,0,0,1,9.87-9.37,60.26,60.26,0,0,1,12.13-7,34.42,34.42,0,0,1,13.73-2.81q12.81,0,20.67,8.43t9.73,22.62h.81A62,62,0,0,1,118,209.41a66.39,66.39,0,0,1,9.91-10.16,50.41,50.41,0,0,1,12.44-7.63,35,35,0,0,1,14-3q15.54,0,23.42,11.24t7.9,28.9v79.76a4,4,0,0,0,1.61,3.21,10.79,10.79,0,0,0,3.87,2,37,37,0,0,0,4.95,1.07c1.79.27,3.48.49,5.09.67v2.41Z"/><path class="cls-3" d="M317.41,301.61a33.23,33.23,0,0,1-5.62,8.69,23,23,0,0,1-8.17,5.9,25.85,25.85,0,0,1-10.3,2,26.17,26.17,0,0,1-16.19-5.35q-7.1-5.36-7.09-18.73l-.54-.27a65.58,65.58,0,0,1-5.75,7.76,53.19,53.19,0,0,1-8.56,8,43.58,43.58,0,0,1-11,6A37.21,37.21,0,0,1,231,317.94a32.63,32.63,0,0,1-8.69-1.21,20.63,20.63,0,0,1-8-4.28,23.26,23.26,0,0,1-5.88-7.9,27.36,27.36,0,0,1-2.28-11.77q0-7.5,6-14.45A67.47,67.47,0,0,1,227,265.74q8.84-5.61,15.66-9.63t11.91-6.82q5.07-2.82,9-4.82c2.59-1.33,4.77-2.54,6.56-3.62V213.29a9.3,9.3,0,0,0-.94-2.54,14.15,14.15,0,0,0-3.21-4.15,21.7,21.7,0,0,0-6.29-3.88A26.51,26.51,0,0,0,249.16,201a25.12,25.12,0,0,0-8.43,1.48,30.09,30.09,0,0,0-7.36,3.74,26.11,26.11,0,0,0-5.08,4.55,6.65,6.65,0,0,0-1.87,3.88v12c0,2.51-1.3,4.73-3.88,6.7a13.7,13.7,0,0,1-8.43,2.94,10,10,0,0,1-7.36-3.08,9.72,9.72,0,0,1-3.08-7.09,11.23,11.23,0,0,1,1.6-5.89,20.67,20.67,0,0,1,4-4.82,30.25,30.25,0,0,1,5.22-3.74q2.81-1.6,5-2.94,7-4,14.18-7.77t13.78-6.42a120.79,120.79,0,0,1,12.05-4.28,33,33,0,0,1,9-1.61,25.51,25.51,0,0,1,13.12,3.61,21.88,21.88,0,0,1,8.83,9c.71,1.25,1.16,3.44,1.33,6.56S292,214,292,217q0,9.63-.14,17.4t-.14,15q0,7.25-.13,14.86T291.45,281q0,12,4.15,15.92a13.5,13.5,0,0,0,9.5,3.89q6.15,0,9.1-2.55a12.71,12.71,0,0,0,4-6.55h1.6A27.54,27.54,0,0,1,317.41,301.61ZM270,245.14a106.85,106.85,0,0,1-12,7.36q-7.23,3.88-14.06,8.43a62.38,62.38,0,0,0-11.77,10,18.09,18.09,0,0,0-5,12.44A18.86,18.86,0,0,0,232,296a15.79,15.79,0,0,0,12.58,5.62A42.87,42.87,0,0,0,256.92,300a23.45,23.45,0,0,0,9.91-6.15,9.72,9.72,0,0,0,3.21-7.5Z"/><path class="cls-3" d="M400.64,212.62a10.52,10.52,0,0,1-8,3.88,13.48,13.48,0,0,1-6.82-1.47,21.1,21.1,0,0,1-4.42-3.34,28.35,28.35,0,0,0-4-3.35,10.23,10.23,0,0,0-5.88-1.47,10.52,10.52,0,0,0-6.29,2.27,29.3,29.3,0,0,0-5.75,5.76,45,45,0,0,0-4.82,7.9q-2.14,4.41-3.75,8.42V308.3a6.44,6.44,0,0,0,3.48,3.74,20.22,20.22,0,0,0,6,1.88,57,57,0,0,0,7,.67,41,41,0,0,1,6.29.66v2.69H313.66v-2.69a34.59,34.59,0,0,0,10.57-2.4q4.42-1.87,4.42-6.16V216.24a9.87,9.87,0,0,0-.4-3.21,6.08,6.08,0,0,0-2.28-2.41c-1.61-.9-3.47-2-5.62-3.35a44.86,44.86,0,0,0-6.42-3.35v-1.6L349,188.67h1.61l-.54,37.2h.54q1.33-3.21,4.27-9.37a80.93,80.93,0,0,1,7.5-12.44,47.24,47.24,0,0,1,11-10.84,24.87,24.87,0,0,1,14.72-4.55,16.9,16.9,0,0,1,11.38,4,12.84,12.84,0,0,1,4.68,10.16A14.07,14.07,0,0,1,400.64,212.62Z"/><path class="cls-3" d="M486.68,296.92a35.63,35.63,0,0,1-11.1,12.45,46.75,46.75,0,0,1-15.93,7,80.87,80.87,0,0,1-18.86,2.14,110.24,110.24,0,0,1-22.22-2.14,90.76,90.76,0,0,1-19.27-6.15V274.85h2.14a141,141,0,0,0,5.34,13.51,68.74,68.74,0,0,0,7.72,13.12,38.81,38.81,0,0,0,10.93,9.9,28.71,28.71,0,0,0,15.19,3.87q12.81,0,20.4-7.35t7.6-22.61a19.28,19.28,0,0,0-5.2-13.79q-5.21-5.47-14.26-7.36c-4.8-.89-9.43-1.87-13.86-2.94a122.65,122.65,0,0,1-12-3.48,33.15,33.15,0,0,1-16.4-12.05q-6.25-8.55-6.26-20.6a31.91,31.91,0,0,1,3.48-15,36.53,36.53,0,0,1,9.37-11.51,41.74,41.74,0,0,1,13.65-7.36,53.08,53.08,0,0,1,16.59-2.54,87.22,87.22,0,0,1,19.8,2c5.71,1.34,10.77-4,16-2l3.58,40.14-2.14.55q-3.75-8.06-7.49-14.87a60.8,60.8,0,0,0-8.3-11.77,32.65,32.65,0,0,0-10.3-7.62,31.08,31.08,0,0,0-13.25-2.68,26.05,26.05,0,0,0-9,1.61,23.06,23.06,0,0,0-7.76,4.67,24,24,0,0,0-5.49,7.77,25.94,25.94,0,0,0-2.14,10.83q0,9.91,5.62,14.19A38.51,38.51,0,0,0,437,237.92c3.92.89,8.21,1.83,12.84,2.8s8.65,1.93,12,2.82a39.62,39.62,0,0,1,20.48,12.31q8.43,9.38,8.43,23A37.15,37.15,0,0,1,486.68,296.92Z"/><path class="cls-3" d="M617.42,278.19a70.26,70.26,0,0,1-13.65,21.28,61.64,61.64,0,0,1-19.94,14.18,57.87,57.87,0,0,1-24,5.08A68.56,68.56,0,0,1,538.2,315a61.31,61.31,0,0,1-20.74-11.92,62,62,0,0,1-15.53-20.88q-6-12.69-6-29.83a62.65,62.65,0,0,1,4.68-23.82,63.63,63.63,0,0,1,59.82-39.88A64.09,64.09,0,0,1,602,204.6a61.74,61.74,0,0,1,14.71,19.8q5.76,11.9,5.76,28A66.5,66.5,0,0,1,617.42,278.19Zm-21.81-45.63a71.37,71.37,0,0,0-6.56-19.27,43.11,43.11,0,0,0-12-14.59Q569.52,193,558.54,193a25.25,25.25,0,0,0-15.79,5.34,46.4,46.4,0,0,0-11.91,14,73.18,73.18,0,0,0-7.5,19.55A96.54,96.54,0,0,0,520.8,254,121.31,121.31,0,0,0,523,277.26a62.86,62.86,0,0,0,6.95,19.4A38.86,38.86,0,0,0,542.21,310a31.81,31.81,0,0,0,17.94,5,25.48,25.48,0,0,0,17.52-6.3,47.63,47.63,0,0,0,11.51-15.79,84.63,84.63,0,0,0,6.43-20.47,114.24,114.24,0,0,0,2-20.34A104.5,104.5,0,0,0,595.61,232.56Z"/><path class="cls-3" d="M617.14,317.94V315q12.32-.83,16.33-2.55a6.12,6.12,0,0,0,4-6V152.54a9.6,9.6,0,0,0-.4-3.21,6,6,0,0,0-2.27-2.41q-2.41-1.33-7.23-4.15a70.9,70.9,0,0,0-8-4.15V137l38.27-12.58h1.88V307.77a5.79,5.79,0,0,0,1.2,4,6.68,6.68,0,0,0,3.61,1.87,33.87,33.87,0,0,0,6.16.67q3.75.14,8.83.68v2.94Z"/><path class="cls-3" d="M789.23,301.61a33.23,33.23,0,0,1-5.62,8.69,23.12,23.12,0,0,1-8.17,5.9,25.85,25.85,0,0,1-10.3,2A26.15,26.15,0,0,1,749,312.85q-7.1-5.36-7.1-18.73l-.52-.27a66,66,0,0,1-5.77,7.76,52,52,0,0,1-8.56,8,43.41,43.41,0,0,1-11,6,37.12,37.12,0,0,1-13.25,2.28,32.75,32.75,0,0,1-8.7-1.21,20.62,20.62,0,0,1-8-4.28,23,23,0,0,1-5.89-7.9,27.36,27.36,0,0,1-2.28-11.77q0-7.5,6-14.45a67.24,67.24,0,0,1,14.85-12.59q8.84-5.61,15.66-9.63t11.9-6.82q5.08-2.82,9-4.82c2.58-1.33,4.77-2.54,6.55-3.62V213.29a9.13,9.13,0,0,0-.93-2.54,14.33,14.33,0,0,0-3.21-4.15,21.7,21.7,0,0,0-6.29-3.88A26.55,26.55,0,0,0,721,201a25.08,25.08,0,0,0-8.43,1.48,30.09,30.09,0,0,0-7.36,3.74,26.11,26.11,0,0,0-5.08,4.55,6.67,6.67,0,0,0-1.88,3.88v12c0,2.51-1.3,4.73-3.88,6.7a13.66,13.66,0,0,1-8.43,2.94,10.06,10.06,0,0,1-7.36-3.08,9.76,9.76,0,0,1-3.08-7.09,11.24,11.24,0,0,1,1.61-5.89,20.67,20.67,0,0,1,4-4.82,30.25,30.25,0,0,1,5.22-3.74q2.79-1.6,4.95-2.94,6.94-4,14.18-7.77t13.78-6.42a121.58,121.58,0,0,1,12-4.28,33.15,33.15,0,0,1,9-1.61,25.51,25.51,0,0,1,13.12,3.61,21.88,21.88,0,0,1,8.83,9q1.06,1.88,1.33,6.56c.18,3.12.27,6.19.27,9.23q0,9.63-.14,17.4t-.13,15q0,7.25-.13,14.86T763.27,281q0,12,4.15,15.92a13.5,13.5,0,0,0,9.5,3.89q6.15,0,9.1-2.55a12.71,12.71,0,0,0,4-6.55h1.61A28,28,0,0,1,789.23,301.61Zm-47.38-56.47a107.54,107.54,0,0,1-12,7.36q-7.23,3.88-14.05,8.43A62.53,62.53,0,0,0,704,271a18.08,18.08,0,0,0-5,12.44A18.86,18.86,0,0,0,703.85,296a15.79,15.79,0,0,0,12.58,5.62A42.92,42.92,0,0,0,728.74,300a23.36,23.36,0,0,0,9.9-6.15,9.72,9.72,0,0,0,3.21-7.5Z"/><path class="cls-3" d="M782.53,317.94v-2.69c2.14-.17,4.29-.39,6.43-.66a25.92,25.92,0,0,0,5.76-1.34,12.77,12.77,0,0,0,4.28-2.54,5.25,5.25,0,0,0,1.73-4V214.9a15.45,15.45,0,0,0-.4-3.75,5.32,5.32,0,0,0-2.27-2.94A49.27,49.27,0,0,0,792.3,205a72.84,72.84,0,0,0-7.09-2.94v-1.61l36.13-11.77H823V308.3a5.81,5.81,0,0,0,2.28,3.88,11.26,11.26,0,0,0,4.14,1.74,30.45,30.45,0,0,0,5.22.67,38.12,38.12,0,0,1,5.49.66v2.69Zm38.41-161.25a14,14,0,0,1-10.3,4.15,14.65,14.65,0,0,1-14.46-14.45,13.59,13.59,0,0,1,4.15-10.18,15.25,15.25,0,0,1,20.61,0,13.54,13.54,0,0,1,4.14,10.18A14,14,0,0,1,820.94,156.69Z"/><path class="cls-3" d="M930.93,296.92a35.63,35.63,0,0,1-11.1,12.45,46.66,46.66,0,0,1-15.93,7A80.87,80.87,0,0,1,885,318.47a110.24,110.24,0,0,1-22.22-2.14,90.48,90.48,0,0,1-19.26-6.15V274.85h2.13A141,141,0,0,0,851,288.36a68.26,68.26,0,0,0,7.73,13.12,38.54,38.54,0,0,0,10.93,9.9,28.66,28.66,0,0,0,15.19,3.87q12.79,0,20.39-7.35t7.6-22.61a19.28,19.28,0,0,0-5.2-13.79q-5.2-5.47-14.26-7.36-7.2-1.33-13.87-2.94a123.22,123.22,0,0,1-12-3.48,33.19,33.19,0,0,1-16.4-12.05q-6.25-8.55-6.26-20.6a32,32,0,0,1,3.48-15,36.39,36.39,0,0,1,9.37-11.51,42,42,0,0,1,13.65-7.36A53,53,0,0,1,888,188.67a87.22,87.22,0,0,1,19.8,2,130,130,0,0,1,16.33,4.95l3.21,33.18-2.14.55q-3.75-8.06-7.49-14.87a60.37,60.37,0,0,0-8.3-11.77,32.54,32.54,0,0,0-10.3-7.62,31,31,0,0,0-13.25-2.68,26.05,26.05,0,0,0-9,1.61,22.92,22.92,0,0,0-7.75,4.67,23.66,23.66,0,0,0-5.49,7.77,25.78,25.78,0,0,0-2.15,10.83q0,9.91,5.63,14.19a38.54,38.54,0,0,0,14.18,6.43c3.92.89,8.21,1.83,12.84,2.8s8.66,1.93,12,2.82a39.59,39.59,0,0,1,20.47,12.31q8.43,9.38,8.43,23A37.15,37.15,0,0,1,930.93,296.92Z"/></g><path class="cls-3" d="M28.53,380c-.53,9.48-4.9,14.78-12.35,14.78-8.49,0-13.27-6.58-13.27-21.47s4.78-21.49,13.27-21.49,11.94,6,11.94,12.8H24.39c0-5.64-2.85-9.66-8.21-9.66-5.93,0-9.54,4.9-9.54,18.35s3.61,18.33,9.54,18.33c5.24,0,8.21-4.48,8.62-11.64Z"/><path class="cls-3" d="M52.21,351.78c8.5,0,13.27,6.58,13.27,21.49s-4.77,21.47-13.27,21.47-13.27-6.58-13.27-21.47S43.72,351.78,52.21,351.78Zm0,39.82c5.95,0,9.55-4.89,9.55-18.33s-3.6-18.35-9.55-18.35-9.54,4.9-9.54,18.35S46.28,391.6,52.21,391.6Z"/><path class="cls-3" d="M77.83,352.48h6.46l10,36.9h.11l10-36.9h6.11V394h-3.73V356h-.11L95.93,394H92.44L81.67,356h-.12V394H77.83Z"/><path class="cls-3" d="M123.58,352.48H130l10,36.9h.11l10-36.9h6.11V394h-3.72V356h-.12L141.69,394h-3.5L127.42,356h-.12V394h-3.72Z"/><path class="cls-3" d="M168.4,352.48h3.72v29.86c0,6.23,2.68,9.26,8.15,9.26s8.16-3,8.16-9.26V352.48h3.72V382.4c0,8.74-4.24,12.34-11.88,12.34s-11.87-3.6-11.87-12.34Z"/><path class="cls-3" d="M203.9,352.48h5l15.9,36.21h.11V352.48h3.73V394h-5l-15.89-36.21h-.12V394H203.9Z"/><path class="cls-3" d="M241.22,352.48h3.72V394h-3.72Z"/><path class="cls-3" d="M282.78,380c-.53,9.48-4.89,14.78-12.34,14.78-8.49,0-13.28-6.58-13.28-21.47s4.79-21.49,13.28-21.49,11.93,6,11.93,12.8h-3.72c0-5.64-2.86-9.66-8.21-9.66-5.94,0-9.55,4.9-9.55,18.35s3.61,18.33,9.55,18.33c5.24,0,8.21-4.48,8.61-11.64Z"/><path class="cls-3" d="M302.51,352.48h4.66L319.45,394h-4l-3.37-12.11H297.57L294.18,394h-3.95Zm8.79,26.31-6.4-23.4h-.12l-6.4,23.4Z"/><path class="cls-3" d="M336.27,355.63H325.56v-3.15h25.15v3.15H340V394h-3.73Z"/><path class="cls-3" d="M360.37,352.48h3.72V394h-3.72Z"/><path class="cls-3" d="M389.59,351.78c8.5,0,13.27,6.58,13.27,21.49s-4.77,21.47-13.27,21.47-13.27-6.58-13.27-21.47S381.1,351.78,389.59,351.78Zm0,39.82c5.94,0,9.55-4.89,9.55-18.33s-3.61-18.35-9.55-18.35-9.55,4.9-9.55,18.35S383.65,391.6,389.59,391.6Z"/><path class="cls-3" d="M414.85,352.48h5l15.89,36.21h.12V352.48h3.72V394h-5l-15.9-36.21h-.11V394h-3.73Z"/><path class="cls-3" d="M470.15,363.13c0-5.12-2.39-8.21-7.45-8.21s-7.86,3.32-7.86,7.46c0,12.4,20.15,5.59,20.15,20.2,0,8-5,12.16-12.58,12.16-7.8,0-12.11-4.19-12.11-12.34v-1.22H454v1.57c0,5.3,2.79,8.85,8.26,8.85,5.24,0,9-2.62,9-8.44,0-12.35-20.15-5.3-20.15-20.38,0-6.52,4.25-11,11.47-11,7.74,0,11.3,4,11.3,11.35Z"/><path class="cls-3" d="M505.71,352.48h3.73V394h-3.73Z"/><path class="cls-3" d="M522,352.48h5l15.89,36.21H543V352.48h3.72V394h-5l-15.89-36.21h-.13V394H522Z"/><path class="cls-3" d="M584.36,380c-.53,9.48-4.89,14.78-12.34,14.78-8.5,0-13.28-6.58-13.28-21.47s4.78-21.49,13.28-21.49,11.93,6,11.93,12.8h-3.73c0-5.64-2.85-9.66-8.2-9.66-5.94,0-9.55,4.9-9.55,18.35s3.61,18.33,9.55,18.33c5.23,0,8.2-4.48,8.61-11.64Z"/><path class="cls-3" d="M591.05,388.1h4V394h-4Z"/></g></g></g></svg>