<svg xmlns="http://www.w3.org/2000/svg" xmlns:xlink="http://www.w3.org/1999/xlink" viewBox="0 0 35 35"><defs><style>.cls-1{fill:none;}.cls-2{clip-path:url(#clip-path);}.cls-3{fill:#57b6b2;}.cls-4{fill:#429b99;}.cls-5{fill:#fff;}</style><clipPath id="clip-path" transform="translate(0 0)"><rect class="cls-1" width="35" height="35"/></clipPath></defs><title>MAST-service-checkmark</title><g id="Calque_2" data-name="Calque 2"><g id="Calque_1-2" data-name="Calque 1"><g id="Illustration_4" data-name="Illustration 4"><g class="cls-2"><g class="cls-2"><path class="cls-3" d="M35,17.5A17.5,17.5,0,1,1,17.5,0,17.51,17.51,0,0,1,35,17.5" transform="translate(0 0)"/><path class="cls-4" d="M13,25.39l9,9A17.47,17.47,0,0,0,35,17.5V17l-7.07-6.51Z" transform="translate(0 0)"/><path class="cls-5" d="M17.94,21.42a2.07,2.07,0,0,1,0,2.87l-1.6,1.6a2.07,2.07,0,0,1-2.87,0l-7-7.07a2.07,2.07,0,0,1,0-2.87l1.6-1.6a2.07,2.07,0,0,1,2.87,0Z" transform="translate(0 0)"/><path class="cls-5" d="M24.07,9.22a2.07,2.07,0,0,1,2.87,0l1.6,1.6a2.07,2.07,0,0,1,0,2.87L16.4,25.78a2.07,2.07,0,0,1-2.87,0l-1.61-1.6a2.07,2.07,0,0,1,0-2.87Z" transform="translate(0 0)"/></g></g></g></g></g></svg>