<svg xmlns="http://www.w3.org/2000/svg" viewBox="0 0 275.05 61.99"><defs><style>.cls-1{fill:#57b6b2;}</style></defs><title>MAST-Logo</title><g id="Calque_2" data-name="Calque 2"><g id="Calque_1-2" data-name="Calque 1"><circle cx="30.99" cy="30.99" r="30.99"/><path class="cls-1" d="M75.16,24.46h2.18l4.73,12c1.56-4,3.22-8.06,4.76-12H89V39.38H87V29.06c-1.32,3.35-2.75,7-4.07,10.32H81.15l-4-10.23V39.38h-2Z"/><path class="cls-1" d="M101.75,24.46H104l5,14.92h-2L106,36.5H99.72l-.9,2.88h-2ZM100.21,34.9h5.25c-.91-2.81-1.66-4.92-2.62-7.82Z"/><path class="cls-1" d="M115.72,34.6h2v.7c0,1.37.91,2.58,3.56,2.58s2.9-1.47,2.9-2.19c0-1.64-1.68-2.22-3.49-2.81-2.28-.77-4.71-1.58-4.71-4.52,0-1.13.75-4,5.08-4s4.88,3,4.88,4.09v.68h-2v-.68c0-1.38-.92-2.49-2.88-2.49s-3.07,1-3.07,2.41c0,1.7,1.73,2.3,3.57,2.9,2.25.74,4.63,1.53,4.63,4.43,0,1.79-1.11,3.79-4.91,3.79-5.45,0-5.55-3.58-5.55-4.18Z"/><path class="cls-1" d="M132.87,24.46H142v1.6h-3.59V39.38h-2V26.06h-3.57Z"/><path d="M166.21,24.46h2.2l5,14.92h-2l-.91-2.88h-6.25l-.89,2.88h-2ZM164.67,34.9h5.25c-.91-2.81-1.66-4.92-2.62-7.82Z"/><path d="M185.92,39.38H184l-4-12.06h2l3,9.21c1-3,2.06-6.23,3-9.21h2Z"/><path d="M202.49,39.48c-5,0-5-4.38-5-6.13s0-6.14,5-6.14,4.92,4.38,4.92,6.14S207.43,39.48,202.49,39.48Zm0-10.73c-3.14,0-3.06,3.41-3.06,4.6s-.08,4.6,3.06,4.6,3-3.42,3-4.6S205.62,28.75,202.49,28.75Z"/><path d="M225.73,35.25c0,2.77-1.76,4.23-4.36,4.23-3.85,0-5.15-3-5.15-6.13s1.3-6.14,5.15-6.14a4,4,0,0,1,4.36,4.23h-1.86c0-1.73-.81-2.69-2.5-2.69-2.39,0-3.23,1.64-3.23,4.6S219,38,221.37,38c1.69,0,2.48-1.07,2.48-2.7Z"/><path d="M243.17,37.73c0,.44.1,1.23.12,1.65h-1.91l-.08-.77a4.27,4.27,0,0,1-2.8.87c-3.52,0-4.49-2-4.49-3.63C234,34,235.62,32,238.76,32a6.39,6.39,0,0,1,2.49.53V31.46a2.52,2.52,0,0,0-2.75-2.71A3.16,3.16,0,0,0,236,30l-1.53-.9a5.17,5.17,0,0,1,4-1.86c1.68,0,4.67.61,4.67,4.25Zm-7.24-1.88c0,1.09.58,2.1,2.57,2.1a3.59,3.59,0,0,0,2.75-1.05V34a6.93,6.93,0,0,0-2.49-.43C237,33.55,235.93,34.62,235.93,35.85Z"/><path d="M251.32,27.32h1.94v-2.5h1.91v2.5H258v1.51h-2.83v6.4c0,1.82,0,2.7.82,2.72a1.49,1.49,0,0,0,1.22-.48l1.1,1.18a3.6,3.6,0,0,1-2.32.83c-2.73,0-2.73-2-2.73-4.25v-6.4h-1.94Z"/><path d="M268,35.76c0,1.23.86,2.19,2.83,2.19s2.31-1.2,2.31-1.8c0-1.29-1.4-1.68-2.88-2.1-1.83-.48-4-1.14-4-3.55,0-.94.84-3.29,4.36-3.29s4.25,2.48,4.25,3.64H273a2.1,2.1,0,0,0-2.34-2.1c-1.46,0-2.45.76-2.45,1.75,0,1.34,1.45,1.75,2.93,2.15,1.84.48,3.95,1.2,3.95,3.5,0,1.45-1.14,3.33-4.25,3.33-4.39,0-4.75-3.2-4.75-3.72Z"/><path class="cls-1" d="M51.6,36.23,50.31,32.1a28.24,28.24,0,0,1,9.5-3.86l2-.43c-.08-.85-.21-1.69-.37-2.52l-.08,0a50.44,50.44,0,0,0-7.24,1.82q-5.57,2.33-5.64,2.32l-.62.31-.24-.4a12.45,12.45,0,0,0-1.33-1.63q2.78-3.73,2.78-6.24,0-3.78-4.57-4.33A4.37,4.37,0,0,0,41.07,19a6.65,6.65,0,0,0-1.29,3.69c0,.08,0,.27,0,.37a10.94,10.94,0,0,0,2.53,4.71c-.12.2-.24.42-.36.65a15.64,15.64,0,0,1-4,4.5,9.9,9.9,0,0,1-7,3.29h-.26q-1.32,0-4.15-2a9.16,9.16,0,0,1-2-2.54c-1.16-2.07-2.63-3.1-4.43-3.1a4.83,4.83,0,0,0-4,1.76c-.52.82-.88,1.36-1.11,1.66-.69-2.33-2-3.51-3.83-3.51h-.88A5.25,5.25,0,0,0,7,29.82a17.93,17.93,0,0,0-1.32,1.26c.17-.49.44-1.21.83-2.18a20.92,20.92,0,0,0,1.72-3.73v-.26c0-.43-.4-.73-1.19-.9-.83,0-1.58.71-2.24,2.15q-2.49,5-4.4,10a31.24,31.24,0,0,0,1.1,4.46,6.45,6.45,0,0,0,1.06-1,7.4,7.4,0,0,0,.69-1l.66-.92c.4-.56.82-1.12,1.24-1.67.76-1,1.55-2,2.41-2.89a10.87,10.87,0,0,1,1.85-1.67,3.38,3.38,0,0,1,.73-.38,1.63,1.63,0,0,1,.3-.07.48.48,0,0,1,.49.15,2.86,2.86,0,0,1,.7,1.29,14.59,14.59,0,0,1,.42,2.17q.2,4.55,1.9,4.55l.44-.09q.64,0,2.13-3.42,1.61-4.48,3.45-4.48h.17q.66,0,2.81,3.4,4.11,4.23,7.9,4.24h1.23q3.91,0,9.44-5.27a36.34,36.34,0,0,0,2.89-3.57,5.3,5.3,0,0,1,1,1.22v.09c0,.12-.13.3-.41.55q-7.14,6.17-7.14,10.86c.42,3.19,1.43,4.69,5,4.54C52.17,45.86,52,37.51,51.6,36.23ZM44.28,25.48a5.26,5.26,0,0,1-1.43-3.08v-.19c.13-1.65,1-2.36,1.8-2.36a1.59,1.59,0,0,1,1.49,1.41C46.14,22.28,45.51,23.69,44.28,25.48Zm3.13,15.8Q44.58,44.15,42,44.15c-.57,0-.91-.33-1-1v-.66a5.54,5.54,0,0,1,1.21-3.45q3-4.08,5.13-5.13.69,0,1.17,3.09A7.3,7.3,0,0,1,47.41,41.28Z"/></g></g></svg>