<svg xmlns="http://www.w3.org/2000/svg" xmlns:xlink="http://www.w3.org/1999/xlink" viewBox="0 0 256 57.69"><defs><style>.cls-1{fill:none;}.cls-2{clip-path:url(#clip-path);}.cls-3{clip-path:url(#clip-path-2);}.cls-4{fill:#57b6b2;}.cls-5{fill:#fff;}</style><clipPath id="clip-path" transform="translate(0 0)"><rect class="cls-1" width="256" height="57.69"/></clipPath><clipPath id="clip-path-2" transform="translate(0 0)"><rect class="cls-1" width="256" height="57.69"/></clipPath></defs><title>MAST-Logo-renverse</title><g id="Calque_2" data-name="Calque 2"><g id="Calque_1-2" data-name="Calque 1"><g id="Illustration_5" data-name="Illustration 5"><g class="cls-2"><g class="cls-3"><path d="M57.69,28.85A28.85,28.85,0,1,1,28.85,0,28.84,28.84,0,0,1,57.69,28.85" transform="translate(0 0)"/><path class="cls-4" d="M70,22.76h2l4.41,11.17c1.45-3.67,3-7.5,4.42-11.17h2V36.65H81v-9.6c-1.22,3.11-2.56,6.52-3.78,9.6H75.53l-3.71-9.52v9.52H70Z" transform="translate(0 0)"/><path class="cls-4" d="M94.7,22.76h2l4.62,13.89h-1.9L98.62,34H92.81L92,36.65H90.09Zm-1.43,9.72h4.89c-.85-2.62-1.55-4.58-2.45-7.28Z" transform="translate(0 0)"/><path class="cls-4" d="M107.71,32.2h1.84v.66c0,1.27.86,2.4,3.32,2.4s2.7-1.37,2.7-2c0-1.53-1.57-2.07-3.25-2.62-2.12-.72-4.38-1.47-4.38-4.21,0-1.05.69-3.73,4.73-3.73,3.89,0,4.54,2.8,4.54,3.81v.64h-1.87v-.64c0-1.29-.85-2.32-2.67-2.32s-2.86.89-2.86,2.24c0,1.59,1.61,2.15,3.32,2.7,2.1.69,4.31,1.43,4.31,4.13,0,1.66-1,3.53-4.57,3.53-5.07,0-5.16-3.34-5.16-3.89Z" transform="translate(0 0)"/><polygon class="cls-4" points="123.67 22.76 132.2 22.76 132.2 24.25 128.86 24.25 128.86 36.65 126.99 36.65 126.99 24.25 123.67 24.25 123.67 22.76"/><path class="cls-5" d="M154.69,22.76h2.06l4.61,13.89h-1.89L158.61,34H152.8L152,36.65h-1.89Zm-1.43,9.72h4.89c-.85-2.62-1.54-4.58-2.44-7.28Z" transform="translate(0 0)"/><path class="cls-5" d="M173,36.65h-1.8l-3.78-11.22h1.85L172.14,34c.92-2.82,1.92-5.8,2.82-8.57h1.85Z" transform="translate(0 0)"/><path class="cls-5" d="M188.46,36.75c-4.6,0-4.63-4.08-4.63-5.71s0-5.71,4.63-5.71S193,29.41,193,31s0,5.71-4.58,5.71m0-10c-2.92,0-2.85,3.19-2.85,4.29s-.07,4.28,2.85,4.28,2.78-3.18,2.78-4.28.14-4.29-2.78-4.29" transform="translate(0 0)"/><path class="cls-5" d="M210.1,32.81c0,2.57-1.64,3.94-4.06,3.94-3.58,0-4.79-2.79-4.79-5.71s1.21-5.71,4.79-5.71a3.75,3.75,0,0,1,4.06,3.93h-1.74c0-1.61-.76-2.51-2.32-2.51-2.23,0-3,1.53-3,4.29s.78,4.28,3,4.28c1.56,0,2.3-1,2.3-2.51Z" transform="translate(0 0)"/><path class="cls-5" d="M226.32,35.12c0,.41.1,1.14.12,1.53h-1.78l-.07-.72a4,4,0,0,1-2.61.82c-3.27,0-4.17-1.86-4.17-3.39,0-1.73,1.49-3.57,4.41-3.57a6.15,6.15,0,0,1,2.32.49v-1A2.36,2.36,0,0,0,222,26.75a2.91,2.91,0,0,0-2.32,1.15l-1.43-.84A4.82,4.82,0,0,1,222,25.33c1.57,0,4.34.57,4.34,4Zm-6.73-1.76c0,1,.54,2,2.39,2a3.32,3.32,0,0,0,2.56-1V31.63a6.32,6.32,0,0,0-2.32-.41,2.35,2.35,0,0,0-2.63,2.14" transform="translate(0 0)"/><path class="cls-5" d="M233.91,25.43h1.81V23.1h1.78v2.33h2.63v1.41H237.5v5.95c0,1.69,0,2.51.76,2.53a1.37,1.37,0,0,0,1.13-.45l1,1.1a3.3,3.3,0,0,1-2.15.78c-2.54,0-2.54-1.88-2.54-4V26.84h-1.81Z" transform="translate(0 0)"/><path class="cls-5" d="M249.4,33.28c0,1.14.81,2,2.64,2s2.16-1.12,2.16-1.67c0-1.2-1.31-1.57-2.68-2-1.71-.45-3.7-1.06-3.7-3.3,0-.88.78-3.06,4.05-3.06s4,2.3,4,3.38h-1.78a2,2,0,0,0-2.18-2c-1.35,0-2.28.72-2.28,1.64,0,1.24,1.36,1.63,2.73,2,1.71.44,3.68,1.12,3.68,3.26,0,1.35-1.07,3.1-4,3.1-4.08,0-4.41-3-4.41-3.47Z" transform="translate(0 0)"/><path class="cls-4" d="M48,33.72l-1.21-3.84a26.42,26.42,0,0,1,8.85-3.6l1.87-.4c-.08-.79-.2-1.57-.34-2.34l-.08,0a47.23,47.23,0,0,0-6.74,1.69q-5.18,2.18-5.25,2.17l-.58.28-.22-.37a11.14,11.14,0,0,0-1.23-1.52c1.71-2.31,2.58-4.25,2.58-5.81q0-3.51-4.25-4a4.05,4.05,0,0,0-3.21,1.76A6.33,6.33,0,0,0,37,21.12c0,.07,0,.25,0,.34a10.17,10.17,0,0,0,2.36,4.39c-.11.18-.23.38-.34.6a14.39,14.39,0,0,1-3.74,4.19,9.2,9.2,0,0,1-6.51,3.06h-.25c-.82,0-2.1-.62-3.86-1.86a8.44,8.44,0,0,1-1.9-2.37c-1.07-1.92-2.45-2.88-4.12-2.88A4.49,4.49,0,0,0,15,28.23c-.48.76-.82,1.26-1,1.54-.65-2.16-1.84-3.26-3.57-3.26H9.54a4.84,4.84,0,0,0-3,1.25,14.9,14.9,0,0,0-1.22,1.17c.15-.46.41-1.13.77-2a20,20,0,0,0,1.59-3.47v-.25c0-.39-.36-.67-1.1-.84-.77,0-1.47.67-2.08,2C3,27.45,1.58,30.54.4,33.64a28.58,28.58,0,0,0,1,4.15,5.58,5.58,0,0,0,1-.88A7.1,7.1,0,0,0,3.05,36c.21-.29.41-.58.62-.86.37-.52.76-1,1.15-1.55.71-.92,1.44-1.83,2.24-2.69a10.6,10.6,0,0,1,1.73-1.55A2.85,2.85,0,0,1,9.46,29a1,1,0,0,1,.29-.07.41.41,0,0,1,.45.14,2.58,2.58,0,0,1,.65,1.19,12.76,12.76,0,0,1,.39,2q.18,4.23,1.78,4.23l.41-.08c.39,0,1.05-1.07,2-3.19q1.48-4.17,3.2-4.17h.17c.4,0,1.28,1.06,2.61,3.17q3.83,3.95,7.36,3.94h1.14q3.63,0,8.78-4.9A34.53,34.53,0,0,0,41.36,28a5,5,0,0,1,.93,1.13v.09q0,.16-.39.51-6.65,5.73-6.64,10.11c.39,3,1.32,4.36,4.65,4.22,8.65-1.35,8.47-9.12,8.12-10.31m-6.82-10a4.9,4.9,0,0,1-1.33-2.86v-.18c.12-1.53,1-2.2,1.68-2.2a1.48,1.48,0,0,1,1.38,1.32,7.85,7.85,0,0,1-1.73,3.92m2.92,14.71q-2.64,2.67-5,2.67c-.53,0-.85-.3-1-.91v-.62a5.22,5.22,0,0,1,1.12-3.2q2.82-3.81,4.79-4.78.63,0,1.08,2.88a6.79,6.79,0,0,1-1,4" transform="translate(0 0)"/></g></g></g></g></g></svg>